<svg xmlns="http://www.w3.org/2000/svg" xmlns:xlink="http://www.w3.org/1999/xlink" width="40" zoomAndPan="magnify" viewBox="0 0 142.5 149.999998" height="40" preserveAspectRatio="xMidYMid meet" version="1.0"><defs><clipPath id="fa4d51f55c"><path d="M 10.726562 18 L 101 18 L 101 135.855469 L 10.726562 135.855469 Z M 10.726562 18 " clip-rule="nonzero"/></clipPath><clipPath id="74230e5dda"><path d="M 105 63 L 128.066406 63 L 128.066406 123 L 105 123 Z M 105 63 " clip-rule="nonzero"/></clipPath></defs><g clip-path="url(#fa4d51f55c)"><path fill="#333333" d="M 99.21875 126.367188 C 98.488281 126.367188 97.507812 126.121094 96.777344 125.878906 L 93.597656 124.65625 C 86.265625 128.324219 78.199219 130.28125 69.640625 130.28125 C 40.0625 130.28125 15.863281 106.070312 15.863281 76.484375 C 15.863281 50.808594 33.953125 29.292969 58.152344 23.910156 L 60.109375 18.53125 C 31.996094 23.421875 10.726562 47.628906 10.726562 76.730469 C 10.726562 109.007812 37.128906 135.414062 69.398438 135.414062 C 80.886719 135.414062 91.886719 131.992188 100.933594 126.121094 C 100.441406 126.367188 99.710938 126.367188 99.21875 126.367188 Z M 99.21875 126.367188 " fill-opacity="1" fill-rule="nonzero"/></g><g clip-path="url(#74230e5dda)"><path fill="#333333" d="M 123.175781 74.039062 C 123.175781 75.015625 123.175781 75.996094 123.175781 76.730469 C 123.175781 90.667969 117.800781 103.382812 109.242188 112.917969 L 106.066406 121.476562 C 105.820312 121.964844 105.578125 122.453125 105.332031 122.945312 C 119.265625 112.183594 128.066406 95.3125 128.066406 76.484375 C 128.066406 72.082031 127.578125 67.925781 126.597656 63.769531 Z M 123.175781 74.039062 " fill-opacity="1" fill-rule="nonzero"/></g><path fill="#333333" d="M 75.507812 77.460938 L 80.152344 71.839844 C 78.199219 68.414062 78.199219 68.414062 75.996094 64.992188 L 68.910156 66.457031 C 66.953125 64.992188 65.976562 64.257812 64.019531 62.789062 L 63.285156 55.699219 C 59.375 54.722656 59.375 54.722656 55.707031 53.742188 L 51.796875 59.855469 C 49.351562 60.347656 48.128906 60.347656 45.683594 60.835938 L 40.0625 56.1875 C 36.640625 58.144531 36.640625 58.144531 33.21875 60.347656 L 34.683594 67.4375 C 33.21875 69.394531 32.484375 70.371094 31.019531 72.328125 L 23.929688 73.0625 C 22.949219 76.972656 22.949219 76.972656 21.972656 80.640625 L 28.085938 84.554688 C 28.574219 87 28.574219 88.222656 29.0625 90.667969 L 24.417969 96.289062 C 26.375 99.714844 26.375 99.714844 28.574219 103.136719 L 35.664062 101.671875 C 37.617188 103.136719 38.597656 103.871094 40.550781 105.339844 L 41.285156 112.429688 C 45.195312 113.40625 45.195312 113.40625 48.863281 114.386719 L 52.773438 108.273438 C 55.21875 107.785156 56.441406 107.785156 58.886719 107.292969 L 64.507812 111.941406 C 67.929688 109.984375 67.929688 109.984375 71.351562 107.785156 L 69.886719 100.691406 C 71.351562 98.734375 72.085938 97.757812 73.554688 95.800781 L 80.640625 95.066406 C 81.621094 91.398438 81.621094 91.398438 82.597656 87.488281 L 76.488281 83.574219 C 75.996094 81.128906 75.753906 79.90625 75.507812 77.460938 Z M 54.242188 96.78125 C 47.152344 97.757812 40.550781 93.113281 39.328125 86.019531 C 38.351562 78.929688 42.996094 72.328125 50.085938 71.105469 C 57.175781 70.125 63.773438 74.773438 64.996094 81.863281 C 66.21875 89.199219 61.332031 95.800781 54.242188 96.78125 Z M 54.242188 96.78125 " fill-opacity="1" fill-rule="nonzero"/><path fill="#333333" d="M 111.933594 25.132812 L 103.867188 48.121094 L 126.84375 56.1875 Z M 111.933594 25.132812 " fill-opacity="1" fill-rule="nonzero"/><path fill="#333333" d="M 100.6875 49.585938 L 109.730469 24.15625 L 70.621094 10.21875 C 68.175781 9.238281 65.242188 10.707031 64.261719 13.152344 L 49.839844 53.253906 L 53.019531 48.363281 L 56.441406 49.097656 C 59.375 49.832031 60.109375 50.074219 62.0625 50.566406 L 67.441406 51.789062 L 68.417969 60.34375 L 69.886719 61.324219 L 78.199219 59.613281 L 79.910156 62.546875 C 81.863281 65.96875 81.863281 65.96875 84.0625 69.148438 L 85.777344 72.082031 L 80.398438 78.683594 C 80.398438 79.417969 80.640625 79.90625 80.640625 80.398438 L 87.730469 85.042969 L 86.996094 88.464844 C 86.019531 92.378906 86.019531 92.378906 85.042969 96.046875 L 84.308594 99.46875 L 75.753906 100.449219 L 74.773438 101.914062 L 76.488281 110.230469 L 70.621094 113.898438 L 97.265625 123.433594 C 99.710938 124.410156 102.644531 122.945312 103.621094 120.5 L 125.867188 58.390625 Z M 100.6875 49.585938 " fill-opacity="1" fill-rule="nonzero"/></svg>