<svg xmlns="http://www.w3.org/2000/svg" xmlns:xlink="http://www.w3.org/1999/xlink" width="20" zoomAndPan="magnify" viewBox="0 0 142.5 149.999998" height="20" preserveAspectRatio="xMidYMid meet" version="1.0"><defs><clipPath id="6761969676"><path d="M 11.035156 41.742188 L 130.613281 41.742188 L 130.613281 113.492188 L 11.035156 113.492188 Z M 11.035156 41.742188 " clip-rule="nonzero"/></clipPath></defs><g clip-path="url(#6761969676)"><path fill="#1b1b1b" d="M 14.511719 45.222656 C 15.070312 44.660156 15.675781 44.15625 16.332031 43.714844 C 16.988281 43.273438 17.683594 42.902344 18.414062 42.597656 C 19.144531 42.292969 19.898438 42.0625 20.675781 41.90625 C 21.453125 41.753906 22.234375 41.675781 23.027344 41.675781 C 23.816406 41.675781 24.601562 41.753906 25.378906 41.90625 C 26.15625 42.0625 26.910156 42.292969 27.640625 42.597656 C 28.371094 42.902344 29.0625 43.273438 29.71875 43.714844 C 30.378906 44.15625 30.984375 44.660156 31.542969 45.222656 L 71 84.800781 L 110.457031 45.222656 C 111.015625 44.660156 111.621094 44.15625 112.277344 43.714844 C 112.933594 43.273438 113.628906 42.902344 114.359375 42.597656 C 115.089844 42.292969 115.84375 42.0625 116.621094 41.90625 C 117.394531 41.753906 118.179688 41.675781 118.972656 41.675781 C 119.761719 41.675781 120.546875 41.753906 121.324219 41.90625 C 122.097656 42.0625 122.851562 42.292969 123.582031 42.597656 C 124.3125 42.902344 125.007812 43.273438 125.664062 43.714844 C 126.320312 44.15625 126.929688 44.660156 127.488281 45.222656 C 128.046875 45.78125 128.550781 46.386719 128.992188 47.042969 C 129.433594 47.699219 129.808594 48.394531 130.113281 49.125 C 130.417969 49.855469 130.644531 50.609375 130.800781 51.386719 C 130.957031 52.160156 131.035156 52.945312 131.035156 53.738281 C 131.035156 54.527344 130.957031 55.3125 130.800781 56.089844 C 130.644531 56.863281 130.417969 57.617188 130.113281 58.347656 C 129.808594 59.078125 129.433594 59.773438 128.992188 60.429688 C 128.550781 61.085938 128.046875 61.695312 127.488281 62.253906 L 79.515625 110.222656 C 78.957031 110.785156 78.347656 111.289062 77.691406 111.730469 C 77.035156 112.171875 76.34375 112.546875 75.613281 112.851562 C 74.878906 113.152344 74.128906 113.382812 73.351562 113.539062 C 72.574219 113.695312 71.789062 113.773438 71 113.773438 C 70.207031 113.773438 69.421875 113.695312 68.648438 113.539062 C 67.871094 113.382812 67.117188 113.152344 66.386719 112.851562 C 65.65625 112.546875 64.960938 112.171875 64.304688 111.730469 C 63.648438 111.289062 63.042969 110.785156 62.484375 110.222656 L 14.511719 62.253906 C 13.949219 61.695312 13.449219 61.085938 13.007812 60.429688 C 12.5625 59.773438 12.191406 59.078125 11.886719 58.347656 C 11.582031 57.617188 11.351562 56.863281 11.195312 56.089844 C 11.042969 55.3125 10.964844 54.527344 10.964844 53.738281 C 10.964844 52.945312 11.042969 52.160156 11.195312 51.386719 C 11.351562 50.609375 11.582031 49.855469 11.886719 49.125 C 12.191406 48.394531 12.5625 47.699219 13.007812 47.042969 C 13.449219 46.386719 13.949219 45.78125 14.511719 45.222656 Z M 14.511719 45.222656 " fill-opacity="1" fill-rule="nonzero"/></g></svg>