<svg xmlns="http://www.w3.org/2000/svg" xmlns:xlink="http://www.w3.org/1999/xlink" width="20" zoomAndPan="magnify" viewBox="0 0 142.5 149.999998" height="20" preserveAspectRatio="xMidYMid meet" version="1.0"><defs><clipPath id="cba56f5a4d"><path d="M 11.382812 41.953125 L 130.964844 41.953125 L 130.964844 113.703125 L 11.382812 113.703125 Z M 11.382812 41.953125 " clip-rule="nonzero"/></clipPath></defs><g clip-path="url(#cba56f5a4d)"><path fill="#1b1b1b" d="M 127.488281 110.222656 C 126.929688 110.785156 126.320312 111.289062 125.664062 111.730469 C 125.007812 112.171875 124.3125 112.546875 123.582031 112.847656 C 122.851562 113.152344 122.097656 113.382812 121.324219 113.539062 C 120.546875 113.695312 119.761719 113.773438 118.972656 113.773438 C 118.179688 113.773438 117.394531 113.695312 116.621094 113.539062 C 115.84375 113.382812 115.089844 113.152344 114.359375 112.847656 C 113.628906 112.546875 112.933594 112.171875 112.277344 111.730469 C 111.621094 111.289062 111.015625 110.785156 110.457031 110.222656 L 71 70.648438 L 31.542969 110.222656 C 30.984375 110.785156 30.378906 111.289062 29.71875 111.730469 C 29.0625 112.171875 28.371094 112.546875 27.640625 112.847656 C 26.910156 113.152344 26.15625 113.382812 25.378906 113.539062 C 24.601562 113.695312 23.820312 113.773438 23.027344 113.773438 C 22.234375 113.773438 21.453125 113.695312 20.675781 113.539062 C 19.898438 113.382812 19.144531 113.152344 18.414062 112.847656 C 17.683594 112.546875 16.988281 112.171875 16.332031 111.730469 C 15.675781 111.289062 15.070312 110.785156 14.511719 110.222656 C 13.949219 109.667969 13.449219 109.058594 13.007812 108.402344 C 12.5625 107.746094 12.191406 107.050781 11.886719 106.320312 C 11.582031 105.589844 11.351562 104.835938 11.195312 104.0625 C 11.042969 103.285156 10.964844 102.5 10.964844 101.710938 C 10.964844 100.917969 11.042969 100.132812 11.195312 99.359375 C 11.351562 98.582031 11.582031 97.828125 11.886719 97.097656 C 12.191406 96.367188 12.5625 95.671875 13.007812 95.015625 C 13.449219 94.359375 13.949219 93.75 14.511719 93.195312 L 62.484375 45.222656 C 63.042969 44.660156 63.648438 44.15625 64.304688 43.714844 C 64.960938 43.273438 65.65625 42.902344 66.386719 42.597656 C 67.117188 42.292969 67.871094 42.0625 68.648438 41.90625 C 69.421875 41.753906 70.207031 41.675781 71 41.675781 C 71.789062 41.675781 72.574219 41.753906 73.351562 41.90625 C 74.128906 42.0625 74.878906 42.292969 75.609375 42.597656 C 76.34375 42.902344 77.035156 43.273438 77.691406 43.714844 C 78.347656 44.15625 78.957031 44.660156 79.515625 45.222656 L 127.488281 93.195312 C 128.046875 93.75 128.550781 94.359375 128.992188 95.015625 C 129.433594 95.671875 129.808594 96.367188 130.113281 97.097656 C 130.417969 97.828125 130.644531 98.582031 130.800781 99.359375 C 130.957031 100.132812 131.035156 100.917969 131.035156 101.710938 C 131.035156 102.5 130.957031 103.285156 130.800781 104.0625 C 130.644531 104.835938 130.417969 105.589844 130.113281 106.320312 C 129.808594 107.050781 129.433594 107.746094 128.992188 108.402344 C 128.550781 109.058594 128.046875 109.667969 127.488281 110.222656 Z M 127.488281 110.222656 " fill-opacity="1" fill-rule="nonzero"/></g></svg>